<svg xmlns="http://www.w3.org/2000/svg" version="1.1" xmlns:xlink="http://www.w3.org/1999/xlink" xmlns:svgjs="http://svgjs.dev/svgjs" width="1500" height="1687" viewBox="0 0 1500 1687"><g transform="matrix(1,0,0,1,0,0)"><svg viewBox="0 0 320 360" data-background-color="#0c0c0c" preserveAspectRatio="xMidYMid meet" height="1687" width="1500" xmlns="http://www.w3.org/2000/svg" xmlns:xlink="http://www.w3.org/1999/xlink"><g id="tight-bounds" transform="matrix(1,0,0,1,0,0)"><svg viewBox="0 0 320 360" height="360" width="320"><g><svg></svg></g><g><svg viewBox="0 0 320 360" height="360" width="320"><g><path d="M160 42.18c72.417 0 131.943 56.114 137.63 127.014h22.37c-1.137-17.82-5.308-34.882-12.133-51.185-7.962-18.957-19.716-36.398-34.502-50.805-14.787-14.787-31.848-26.161-50.806-34.503-20.095-8.341-40.948-12.891-62.559-12.891-21.611 0-42.464 4.171-62.559 12.512-18.957 7.962-36.398 19.716-50.806 34.503-14.787 14.787-26.161 31.848-34.502 50.805-6.825 16.303-10.995 33.744-12.133 51.185h22.37c5.687-70.521 65.213-126.635 137.63-126.635zM160 318.199c-72.417 0-131.943-56.114-137.63-127.014h-22.37c1.137 17.82 5.308 34.882 12.133 51.185 7.962 18.957 19.716 36.398 34.502 50.805 14.787 14.787 31.848 26.161 50.806 34.503 19.716 8.341 40.569 12.512 62.559 12.512 21.991 0 42.464-4.171 62.559-12.512 18.957-7.962 36.398-19.716 50.806-34.503 14.787-14.787 26.161-31.848 34.502-50.805 6.825-16.303 10.995-33.744 12.133-51.185h-22.37c-5.687 70.9-65.213 127.014-137.63 127.014z" fill="#ffffff" fill-rule="nonzero" stroke="none" stroke-width="1" stroke-linecap="butt" stroke-linejoin="miter" stroke-miterlimit="10" stroke-dasharray="" stroke-dashoffset="0" font-family="none" font-weight="none" font-size="none" text-anchor="none" style="mix-blend-mode: normal" data-fill-palette-color="tertiary"></path></g><g transform="matrix(1,0,0,1,81.46814404432133,90)"><svg viewBox="0 0 157.06371191135733 180" height="180" width="157.06371191135733"><g><svg viewBox="0 0 157.06371191135733 180" height="180" width="157.06371191135733"><g><svg viewBox="0 0 157.06371191135733 180" height="180" width="157.06371191135733"><g id="textblocktransform"><svg viewBox="0 0 157.06371191135733 180" height="180" width="157.06371191135733" id="textblock"><g><svg viewBox="0 0 157.06371191135733 180" height="180" width="157.06371191135733"><g transform="matrix(1,0,0,1,0,0)"><svg width="157.06371191135733" viewBox="-1.35 -35.5 31.5 36.1" height="180" data-palette-color="#ffffff"><path d="M3-0.65L3-0.65Q2.65 0.45 1.43 0.45 0.2 0.45-1.35-0.9L-1.35-0.9Q0.15-5.3 5-15.08 9.85-24.85 11.3-29.7L11.3-29.7Q11.5-30.5 11.5-30.8L11.5-30.8Q11.5-31.55 10.4-33.1L10.4-33.1 10-33.65 10.1-34.3Q14.35-35.5 19.5-35.5L19.5-35.5 22.55-35.3Q23.1-34.55 23.4-33L23.4-33Q24.2-29.2 24.2-13.45L24.2-13.45Q24.2-7.35 25.25-4.85L25.25-4.85Q25.65-3.9 26.05-3.9 26.45-3.9 28.5-4.9L28.5-4.9 29.15-5.2 30.15-3.4Q28.25-1.55 25.93-0.48 23.6 0.6 21.65 0.6L21.65 0.6Q16.6 0.6 16.6-7.25L16.6-7.25 16.6-11.2Q15.3-11.5 12.65-11.5 10-11.5 6.85-11L6.85-11Q4.35-5.2 3-0.65ZM8.45-14.6L16.7-14.6 16.75-20.4Q16.75-28 16.1-30.7L16.1-30.7Q15.7-30.7 15.5-30.6L15.5-30.6Q14.1-26.75 12.88-24.08 11.65-21.4 10.23-18.38 8.8-15.35 8.45-14.6L8.45-14.6Z" opacity="1" transform="matrix(1,0,0,1,0,0)" fill="#ffffff" class="wordmark-text-0" data-fill-palette-color="primary" id="text-0"></path></svg></g></svg></g></svg></g></svg></g><g></g></svg></g></svg></g></svg></g><defs></defs></svg><rect width="320" height="360" fill="none" stroke="none" visibility="hidden"></rect></g></svg></g></svg>